<?xml version="1.0" encoding="UTF-8" standalone="no"?>
<!-- Created with Inkscape (http://www.inkscape.org/) -->

<svg
   xmlns:dc="http://purl.org/dc/elements/1.1/"
   xmlns:cc="http://creativecommons.org/ns#"
   xmlns:rdf="http://www.w3.org/1999/02/22-rdf-syntax-ns#"
   xmlns:svg="http://www.w3.org/2000/svg"
   xmlns="http://www.w3.org/2000/svg"
   xmlns:sodipodi="http://sodipodi.sourceforge.net/DTD/sodipodi-0.dtd"
   xmlns:inkscape="http://www.inkscape.org/namespaces/inkscape"
   width="202.57693mm"
   height="80.676651mm"
   viewBox="0 0 202.57693 80.676653"
   version="1.1"
   id="svg4735"
   inkscape:version="0.92.3 (2405546, 2018-03-11)"
   sodipodi:docname="nova_logo.svg">
  <defs
     id="defs4729">
    <clipPath
       id="clipPath18"
       clipPathUnits="userSpaceOnUse">
      <path
         inkscape:connector-curvature="0"
         id="path16"
         d="M 0,0 H 612 V 523.739 H 0 Z" />
    </clipPath>
  </defs>
  <sodipodi:namedview
     id="base"
     pagecolor="#ffffff"
     bordercolor="#666666"
     borderopacity="1.0"
     inkscape:pageopacity="0.0"
     inkscape:pageshadow="2"
     inkscape:zoom="0.7"
     inkscape:cx="239.35774"
     inkscape:cy="215.90556"
     inkscape:document-units="mm"
     inkscape:current-layer="layer1"
     showgrid="false"
     inkscape:window-width="1920"
     inkscape:window-height="1017"
     inkscape:window-x="-8"
     inkscape:window-y="-8"
     inkscape:window-maximized="1" />
  <metadata
     id="metadata4732">
    <rdf:RDF>
      <cc:Work
         rdf:about="">
        <dc:format>image/svg+xml</dc:format>
        <dc:type
           rdf:resource="http://purl.org/dc/dcmitype/StillImage" />
        <dc:title />
      </cc:Work>
    </rdf:RDF>
  </metadata>
  <g
     inkscape:label="Camada 1"
     inkscape:groupmode="layer"
     id="layer1"
     transform="translate(-3.8009732,-17.053491)">
    <g
       id="g4555">
      <g
         id="text6409"
         style="font-style:normal;font-weight:normal;font-size:27.78374672px;line-height:1.25;font-family:sans-serif;letter-spacing:0px;word-spacing:0px;fill:#808080;fill-opacity:1;stroke:none;stroke-width:0.26458335"
         transform="scale(0.99141495,1.0086594)"
         aria-label="certo">
        <path
           id="path5241"
           style="font-style:normal;font-variant:normal;font-weight:normal;font-stretch:normal;font-family:'La chata';-inkscape-font-specification:'La chata';fill:#808080;fill-opacity:1;stroke-width:0.04947508"
           d="m 68.105888,88.806054 q 0,-1.694809 0.555675,-3.167347 0.555675,-1.472539 1.55589,-2.528321 1.027998,-1.055782 2.444969,-1.667025 1.444755,-0.611242 3.195131,-0.611242 0.361189,0 0.805729,0.05557 0.44454,0.02778 0.88908,0.111135 0.472324,0.08335 0.88908,0.22227 0.44454,0.138919 0.777945,0.305621 0.361188,0.194487 0.472323,0.555675 0.111135,0.333405 0.02778,0.66681 -0.08335,0.333405 -0.333405,0.583459 -0.250054,0.250054 -0.66681,0.250054 -0.500107,0 -1.194701,-0.22227 -0.694594,-0.250054 -1.667025,-0.250054 -1.278052,0 -2.278267,0.44454 -1.000215,0.416756 -1.722592,1.166917 -0.694594,0.750161 -1.083566,1.805944 -0.361189,1.027998 -0.361189,2.278267 0,1.250269 0.361189,2.306051 0.361188,1.027999 1.055782,1.77816 0.722377,0.750161 1.722592,1.194701 1.027999,0.416756 2.306051,0.416756 0.972431,0 1.667025,-0.22227 0.694594,-0.250054 1.194701,-0.250054 0.416756,0 0.66681,0.250054 0.250054,0.250054 0.333405,0.583459 0.08335,0.333405 -0.02778,0.694593 -0.111135,0.333405 -0.472323,0.527892 -0.333405,0.194486 -0.777945,0.333405 -0.416756,0.138918 -0.88908,0.22227 -0.44454,0.08335 -0.88908,0.111135 -0.44454,0.05557 -0.805729,0.05557 -1.750376,0 -3.195131,-0.611242 -1.416971,-0.611243 -2.444969,-1.667025 -1.000215,-1.083566 -1.55589,-2.528321 -0.555675,-1.472539 -0.555675,-3.195131 z"
           inkscape:connector-curvature="0" />
        <path
           id="path5243"
           style="font-style:normal;font-variant:normal;font-weight:normal;font-stretch:normal;font-family:'La chata';-inkscape-font-specification:'La chata';fill:#808080;fill-opacity:1;stroke-width:0.04947508"
           d="m 98.342853,88.861621 q 0,0.416757 -0.277837,0.750162 -0.250054,0.333405 -0.694594,0.416756 l -11.558039,1.833727 q 0.722378,1.416971 2.028214,2.083781 1.305836,0.66681 2.778374,0.66681 1.278053,0 2.417186,-0.500107 0.05557,-0.02778 0.194487,-0.08335 0.166702,-0.05557 0.361188,0 0.22227,0.02778 0.44454,0.194487 0.22227,0.138918 0.388973,0.527891 0.194486,0.388972 0.08335,0.805728 -0.08335,0.416757 -0.555675,0.639027 -1.55589,0.694593 -3.33405,0.694593 -1.416971,0 -2.806158,-0.500107 -1.389187,-0.472324 -2.472753,-1.472539 -1.083567,-1.000215 -1.77816,-2.500537 -0.66681,-1.500322 -0.66681,-3.528536 0,-2.028213 0.66681,-3.528536 0.66681,-1.500322 1.750376,-2.472753 1.11135,-1.000215 2.500537,-1.472539 1.389187,-0.500107 2.806158,-0.500107 1.416971,0 2.778375,0.500107 1.389187,0.472324 2.472754,1.472539 1.111349,0.972431 1.778159,2.472753 0.694594,1.472539 0.694594,3.500752 z m -12.780524,0.722378 10.113284,-1.611457 q 0.166703,-0.02778 0.22227,-0.166703 0.08335,-0.138919 0.05557,-0.277837 -0.22227,-1.11135 -0.750161,-1.917079 -0.500108,-0.833512 -1.222485,-1.361403 -0.722378,-0.555675 -1.611458,-0.805729 -0.861296,-0.250054 -1.750376,-0.250054 -1.055782,0 -2.028213,0.333405 -0.972431,0.333405 -1.750376,1.027999 -0.750161,0.694593 -1.222485,1.77816 -0.44454,1.083566 -0.44454,2.556104 v 0.388973 q 0.05557,0.361188 0.388972,0.305621 z"
           inkscape:connector-curvature="0" />
        <path
           id="path5245"
           style="font-style:normal;font-variant:normal;font-weight:normal;font-stretch:normal;font-family:'La chata';-inkscape-font-specification:'La chata';fill:#808080;fill-opacity:1;stroke-width:0.04947508"
           d="m 104.58161,88.806054 v 6.473613 q 0,0.500107 -0.36119,0.750161 -0.36119,0.22227 -0.77795,0.22227 -0.41675,0 -0.77794,-0.22227 -0.36119,-0.250054 -0.36119,-0.750161 v -6.473613 q 0,-1.722592 0.55567,-3.167347 0.55568,-1.472539 1.55589,-2.528321 1.028,-1.083566 2.44497,-1.694809 1.41697,-0.611242 3.16735,-0.611242 0.36119,0 0.80573,0.05557 0.47232,0.02778 0.91686,0.111135 0.47233,0.08335 0.88908,0.22227 0.41676,0.138919 0.75016,0.333405 0.36119,0.194487 0.47233,0.555675 0.13892,0.333405 0.0556,0.66681 -0.0833,0.333405 -0.36118,0.583459 -0.25006,0.250054 -0.66681,0.250054 -0.47233,0 -1.19471,-0.250054 -0.69459,-0.250054 -1.66702,-0.250054 -1.27805,0 -2.27827,0.44454 -1.00021,0.416756 -1.72259,1.194701 -0.69459,0.750161 -1.08357,1.805944 -0.36118,1.027998 -0.36118,2.278267 z"
           inkscape:connector-curvature="0" />
        <path
           id="path5247"
           style="font-style:normal;font-variant:normal;font-weight:normal;font-stretch:normal;font-family:'La chata';-inkscape-font-specification:'La chata';fill:#808080;fill-opacity:1;stroke-width:0.04947508"
           d="m 120.12488,88.806054 q 0,1.472539 0.44454,2.556105 0.47232,1.083566 1.22248,1.805943 0.77795,0.694594 1.75038,1.027999 1.00021,0.333405 2.02821,0.333405 0.47233,0 0.72238,0.361188 0.27784,0.333405 0.27784,0.777945 0,0.44454 -0.27784,0.777945 -0.25005,0.361189 -0.72238,0.361189 -1.41697,0 -2.80616,-0.500107 -1.38918,-0.472324 -2.47275,-1.472539 -1.08357,-1.000215 -1.77816,-2.500537 -0.66681,-1.500323 -0.66681,-3.528536 v -4.528751 q 0,-0.416756 -0.30562,-0.694593 -0.27784,-0.277838 -0.66681,-0.277838 h -0.94465 q -0.38897,0 -0.61124,-0.277837 -0.19449,-0.305622 -0.19449,-0.694594 0,-0.388972 0.19449,-0.66681 0.22227,-0.305621 0.61124,-0.305621 h 0.94465 q 0.38897,0 0.66681,-0.277838 0.30562,-0.305621 0.30562,-0.694593 v -5.612317 q 0,-0.472324 0.3334,-0.722378 0.36119,-0.250053 0.80573,-0.250053 0.44454,0 0.77795,0.250053 0.36119,0.250054 0.36119,0.722378 v 5.612317 q 0,0.388972 0.27783,0.694593 0.30563,0.277838 0.6946,0.277838 h 3.4174 q 0.38897,0 0.61124,0.305621 0.22227,0.277838 0.22227,0.66681 0,0.388972 -0.22227,0.694594 -0.22227,0.277837 -0.61124,0.277837 h -3.4174 q -0.38897,0 -0.6946,0.277838 -0.27783,0.277837 -0.27783,0.694593 z"
           inkscape:connector-curvature="0" />
        <path
           id="path5249"
           style="font-style:normal;font-variant:normal;font-weight:normal;font-stretch:normal;font-family:'La chata';-inkscape-font-specification:'La chata';fill:#808080;fill-opacity:1;stroke-width:0.04947508"
           d="m 136.14481,96.807773 q -1.41697,0 -2.80616,-0.500107 -1.38919,-0.472324 -2.47275,-1.472539 -1.08357,-1.000215 -1.77816,-2.500537 -0.66681,-1.500323 -0.66681,-3.528536 0,-2.028214 0.66681,-3.528536 0.66681,-1.500322 1.75037,-2.472753 1.11135,-1.000215 2.50054,-1.472539 1.38919,-0.500107 2.80616,-0.500107 1.44475,0 2.83394,0.500107 1.38919,0.472324 2.47275,1.472539 1.08357,0.972431 1.75038,2.472753 0.66681,1.500322 0.66681,3.528536 0,2.028213 -0.66681,3.528536 -0.66681,1.500322 -1.77816,2.500537 -1.08357,1.000215 -2.47275,1.472539 -1.38919,0.500107 -2.80616,0.500107 z m 0,-2.278267 q 1.028,0 2.00043,-0.333405 1.00021,-0.333405 1.75037,-1.027999 0.77795,-0.722377 1.22249,-1.805943 0.47232,-1.083566 0.47232,-2.556105 0,-1.472539 -0.47232,-2.556105 -0.44454,-1.083566 -1.22249,-1.77816 -0.75016,-0.694593 -1.75037,-1.027998 -0.97243,-0.333405 -2.00043,-0.333405 -1.028,0 -2.02821,0.333405 -0.97244,0.333405 -1.75038,1.027998 -0.75016,0.694594 -1.22249,1.77816 -0.44454,1.083566 -0.44454,2.556105 0,1.472539 0.47233,2.556105 0.47232,1.083566 1.22248,1.805943 0.77795,0.694594 1.75038,1.027999 0.97243,0.333405 2.00043,0.333405 z"
           inkscape:connector-curvature="0" />
      </g>
      <path
         sodipodi:nodetypes="cccccccccccccccccccccsccccccccccccccccccccccccccccccccccccc"
         inkscape:connector-curvature="0"
         id="path6022"
         d="m 78.444388,17.053491 c 4.29164,3.362156 8.58356,6.498222 12.87519,9.027358 1.9477,1.117267 3.78415,2.120951 5.52834,3.032374 7.354982,1.906973 14.709832,3.410436 22.064802,6.381006 -9.69935,-2.518892 -13.70598,-3.249078 -16.24552,-3.518649 9.63677,4.427858 16.06107,5.759114 22.24567,7.572147 -10.99841,2.001504 -23.37393,6.130505 -37.441122,12.874668 -0.52022,0.277003 -1.034,0.555802 -1.54461,0.835607 11.18105,-4.318267 18.083022,-8.975649 42.163832,-12.014772 -31.575712,4.915525 -56.139132,19.418848 -76.550365,39.926763 -1.517922,1.839304 -2.956332,3.701762 -4.321183,5.585706 -0.09952,0.189254 -0.19768,0.390348 -0.294555,0.598929 12.184911,-14.553935 26.314671,-20.959961 26.314671,-20.959961 -11.74938,6.952375 -21.555555,18.918182 -28.755349,31.075107 1.033605,0.03805 3.291332,0.17685 3.653525,0.05891 C 49.572568,92.174527 53.031247,81.44153 82.440528,63.669769 106.14486,50.736991 111.75448,51.640694 123.13675,48.130668 l -14.05857,12.282969 c -0.3427,0.371827 -0.68586,0.827849 -1.01337,1.330669 8.45244,-4.198596 12.22966,-6.591641 31.48903,-14.012582 -20.38244,8.892085 -28.32718,13.772205 -33.10961,17.623213 -0.0592,0.229584 -0.11161,0.459126 -0.15244,0.687813 -0.11309,0.63345 -0.0236,1.318501 0.12247,1.807642 0.67158,2.248305 2.89491,3.60975 4.48241,3.870566 6.10079,-4.570582 11.87976,-9.398659 18.81229,-13.305132 -9.62537,7.210219 -12.11719,9.617012 -13.83171,11.500591 L 132.1729,58.690744 c 3.84284,-3.493749 7.74329,-6.944286 12.20701,-9.970966 -2.96448,2.640471 -5.15528,4.659519 -6.85489,6.283855 l 10.62158,-7.316867 c 3.14192,-2.524631 3.3677,-9.103421 0.74001,-9.915157 -13.91602,-1.92495 -41.75351,-6.316216 -70.442222,-20.718118 z m 60.157052,22.545912 c 1.67291,0.06088 3.27837,0.256627 4.85294,0.514181 l -3.37292,-0.144177 h -4.29173 z m 0,1.058333 4.95785,0.147797 -3.47783,0.222207 h -4.29173 z m -4.87412,6.529319 c 0.19599,-0.0019 1.12584,-0.194125 1.32368,-0.166394 -0.46278,0.366033 -1.87528,0.843066 -3.71629,1.450552 0.41318,-0.364003 0.25483,-0.256085 1.00666,-0.81688 0.31757,-0.147153 0.79771,-0.333592 1.38595,-0.467278 z m -26.53894,2.858222 c -0.28225,0.09862 -0.75218,0.188749 -2.04846,0.409795 0.24439,-0.09556 0.41358,-0.140136 0.87902,-0.293521 0.34391,-0.07469 0.74727,-0.102991 1.16944,-0.116274 z m -2.97088,0.899171 c -0.29244,0.169807 -0.77977,0.325303 -2.12287,0.7059 0.25321,-0.164533 0.4288,-0.241815 0.91106,-0.505912 0.35633,-0.128598 0.77439,-0.17712 1.21181,-0.199988 z m -3.03393,1.110009 c -0.3638,0.258786 -0.96979,0.495866 -2.640662,1.075904 0.31501,-0.25075 0.53331,-0.36904 1.13326,-0.77153 0.443302,-0.195987 0.963242,-0.269523 1.507402,-0.304374 z"
         style="fill:#999999;stroke:none;stroke-width:0.1;stroke-linecap:butt;stroke-linejoin:miter;stroke-miterlimit:4;stroke-dasharray:none;stroke-opacity:1" />
      <g
         id="text6405"
         style="font-style:normal;font-weight:normal;font-size:46.05406952px;line-height:1.25;font-family:sans-serif;letter-spacing:0px;word-spacing:0px;fill:#ff6600;fill-opacity:1;stroke:none;stroke-width:0.26458332"
         transform="scale(0.97295658,1.0277951)"
         aria-label="azimute">
        <path
           id="path5226"
           style="font-style:normal;font-variant:normal;font-weight:normal;font-stretch:normal;font-family:'La chata';-inkscape-font-specification:'La chata';fill:#ff6600;stroke-width:0.04947508"
           d="m 29.512684,68.450969 q 0,0.875028 -0.598703,1.335568 -0.598703,0.460541 -1.381622,0.460541 -0.506595,0 -0.967135,-0.23027 -0.460541,-0.276325 -0.690811,-0.78292 -0.322379,-0.644757 -0.967136,-0.644757 -0.322378,0 -0.644757,0.230271 -1.657946,1.151352 -3.638271,1.704 -1.934271,0.598703 -3.914596,0.598703 -2.348758,0 -4.651461,-0.828973 Q 9.7554884,69.510213 7.9593797,67.852266 6.163271,66.19432 5.0119193,63.7074 3.9066216,61.22048 3.9066216,57.858533 q 0,-3.361947 1.1052977,-5.848867 1.1513517,-2.486919 2.9474604,-4.098812 1.7961087,-1.657946 4.0988123,-2.440865 2.302703,-0.828974 4.651461,-0.828974 1.980325,0 3.914596,0.598703 1.980325,0.552649 3.638271,1.704001 0.322379,0.23027 0.644757,0.23027 0.322379,0 0.552649,-0.184216 0.276325,-0.230271 0.414487,-0.506595 0.23027,-0.506595 0.690811,-0.736865 0.46054,-0.23027 0.967135,-0.23027 0.782919,0 1.381622,0.46054 0.598703,0.460541 0.598703,1.335568 z M 16.709653,48.417449 q -1.750055,0 -3.361947,0.552649 -1.611893,0.552649 -2.901407,1.704 -1.2434594,1.151352 -2.0263786,2.947461 -0.7368651,1.796109 -0.7368651,4.236974 0,2.48692 0.7368651,4.283029 0.7829192,1.750054 2.0263786,2.94746 1.289514,1.151352 2.901407,1.704001 1.657946,0.552649 3.361947,0.552649 1.704,0 3.315893,-0.552649 1.657946,-0.552649 2.901406,-1.704001 1.289514,-1.197406 2.026379,-2.94746 0.78292,-1.796109 0.78292,-4.283029 0,-2.440865 -0.78292,-4.236974 -0.736865,-1.796109 -2.026379,-2.947461 -1.24346,-1.151351 -2.901406,-1.704 -1.611893,-0.552649 -3.315893,-0.552649 z"
           inkscape:connector-curvature="0" />
        <path
           id="path5228"
           style="font-style:normal;font-variant:normal;font-weight:normal;font-stretch:normal;font-family:'La chata';-inkscape-font-specification:'La chata';fill:#ff6600;stroke-width:0.04947508"
           d="m 37.253367,47.404259 q 0,-0.736865 0.414486,-1.289513 0.414487,-0.598703 1.197406,-0.598703 H 55.62894 q 0.736866,0 1.24346,0.46054 0.644757,0.598703 0.644757,1.427676 0,0.736866 -0.506594,1.24346 l -14.645195,16.85579 q -0.23027,0.276324 -0.09211,0.644757 0.138163,0.322378 0.506595,0.322378 h 13.908329 q 0.782919,0 1.197406,0.598703 0.460541,0.552649 0.460541,1.289514 0,0.736865 -0.460541,1.335568 -0.414487,0.552649 -1.197406,0.552649 H 37.391529 q -0.736865,0 -1.24346,-0.460541 -0.598703,-0.506595 -0.644757,-1.289514 -0.04605,-0.782919 0.460541,-1.381622 L 50.655101,50.259612 q 0.23027,-0.276325 0.04605,-0.598703 -0.138162,-0.368433 -0.506595,-0.368433 H 38.865259 q -0.782919,0 -1.197406,-0.552649 -0.414486,-0.598702 -0.414486,-1.335568 z"
           inkscape:connector-curvature="0" />
        <path
           id="path5230"
           style="font-style:normal;font-variant:normal;font-weight:normal;font-stretch:normal;font-family:'La chata';-inkscape-font-specification:'La chata';fill:#ff6600;stroke-width:0.04947508"
           d="m 64.192119,39.344797 q 0,-0.690811 0.46054,-1.24346 0.460541,-0.552648 1.427677,-0.552648 0.967135,0 1.427676,0.552648 0.46054,0.552649 0.46054,1.24346 0,0.690811 -0.46054,1.24346 -0.460541,0.552649 -1.427676,0.552649 -0.967136,0 -1.427677,-0.552649 -0.46054,-0.552649 -0.46054,-1.24346 z m 0.04605,7.783138 q 0,-0.782919 0.552649,-1.197406 0.598703,-0.46054 1.335568,-0.46054 0.736865,0 1.289514,0.46054 0.598703,0.414487 0.598703,1.197406 v 12.250383 q 0,2.348757 1.197405,4.513298 1.24346,2.118488 3.223785,3.454056 0.828973,0.598702 0.828973,1.427676 0,0.828973 -0.644757,1.381622 -0.644757,0.552649 -1.427676,0.552649 -0.552649,0 -1.24346,-0.460541 -0.690811,-0.414487 -1.381622,-1.059244 -0.644757,-0.690811 -1.24346,-1.381622 -0.552648,-0.736865 -0.921081,-1.289514 -0.967135,-1.519784 -1.565838,-3.269839 -0.552649,-1.796108 -0.598703,-3.638271 z"
           inkscape:connector-curvature="0" />
        <path
           id="path5232"
           style="font-style:normal;font-variant:normal;font-weight:normal;font-stretch:normal;font-family:'La chata';-inkscape-font-specification:'La chata';fill:#ff6600;stroke-width:0.04947508"
           d="m 82.366928,46.298962 q 0.138162,0.276324 0.414487,0.598703 0.276324,0.276324 0.644757,0.276324 0.368432,0 0.690811,-0.23027 1.657946,-1.197406 3.592217,-1.750055 1.934271,-0.552649 3.96065,-0.552649 3.177731,0 6.125191,1.427676 2.993519,1.427677 4.789619,4.421191 1.79611,-2.993514 4.74357,-4.421191 2.99352,-1.427676 6.17125,-1.427676 2.34876,0 4.65146,0.828974 2.3027,0.782919 4.09881,2.440865 1.79611,1.611893 2.90141,4.144866 1.15135,2.48692 1.15135,5.848867 v 10.730599 q 0,0.782919 -0.5987,1.197405 -0.55265,0.414487 -1.28952,0.414487 -0.73686,0 -1.33556,-0.414487 -0.55265,-0.414486 -0.55265,-1.197405 V 57.858533 q 0,-2.440865 -0.78292,-4.236974 -0.73687,-1.796109 -2.02638,-2.947461 -1.24346,-1.151351 -2.90141,-1.704 -1.61189,-0.552649 -3.31589,-0.552649 -1.75006,0 -3.36195,0.552649 -1.61189,0.552649 -2.9014,1.704 -1.24346,1.151352 -2.02638,2.947461 -0.73687,1.796109 -0.73687,4.236974 v 10.776653 q 0,0.782919 -0.5987,1.197405 -0.55265,0.414487 -1.28952,0.414487 -0.73686,0 -1.33556,-0.414487 -0.55265,-0.414486 -0.55265,-1.197405 V 57.904587 q 0,-2.486919 -0.782921,-4.236974 -0.736866,-1.796109 -2.026379,-2.947461 -1.24346,-1.197405 -2.901407,-1.750054 -1.611892,-0.552649 -3.315893,-0.552649 -1.704,0 -3.315893,0.552649 -1.611892,0.552649 -2.901406,1.704 -1.24346,1.151352 -2.026379,2.947461 -0.782919,1.750054 -0.782919,4.19092 v 10.822707 q 0,0.782919 -0.598703,1.197405 -0.552649,0.414487 -1.289514,0.414487 -0.736865,0 -1.335568,-0.414487 -0.552649,-0.414486 -0.552649,-1.197405 V 47.127935 q 0,-0.552649 0.506595,-1.059244 0.506594,-0.552648 1.381622,-0.552648 0.506594,0 0.921081,0.184216 0.460541,0.138162 0.690811,0.598703 z"
           inkscape:connector-curvature="0" />
        <path
           id="path5234"
           style="font-style:normal;font-variant:normal;font-weight:normal;font-stretch:normal;font-family:'La chata';-inkscape-font-specification:'La chata';fill:#ff6600;stroke-width:0.04947508"
           d="m 155.32881,69.279942 q -0.32238,-0.644756 -0.96714,-0.644756 -0.32238,0 -0.64476,0.23027 -1.65794,1.197406 -3.63827,1.750054 -1.93427,0.552649 -3.91459,0.552649 -2.34876,0 -4.65146,-0.828973 -2.30271,-0.782919 -4.14487,-2.394812 -1.79611,-1.657946 -2.90141,-4.144866 -1.10529,-2.48692 -1.10529,-5.848867 V 47.173989 q 0,-0.782919 0.55264,-1.197406 0.59871,-0.414486 1.33557,-0.414486 0.73687,0 1.28952,0.414486 0.5987,0.414487 0.5987,1.197406 v 10.776652 q 0,2.440866 0.73686,4.236975 0.78292,1.796108 2.02638,2.94746 1.28952,1.151352 2.90141,1.704001 1.61189,0.552649 3.36195,0.552649 1.704,0 3.31589,-0.552649 1.61189,-0.552649 2.85535,-1.704001 1.28952,-1.151352 2.07244,-2.901406 0.78291,-1.796109 0.78291,-4.236975 V 47.173989 q 0,-0.782919 0.55265,-1.197406 0.59871,-0.414486 1.33557,-0.414486 0.73687,0 1.28952,0.414486 0.5987,0.414487 0.5987,1.197406 v 21.230926 q 0,0.828973 -0.5987,1.381622 -0.55265,0.506595 -1.28952,0.506595 -1.28951,0 -1.75005,-1.01319 z"
           inkscape:connector-curvature="0" />
        <path
           id="path5236"
           style="font-style:normal;font-variant:normal;font-weight:normal;font-stretch:normal;font-family:'La chata';-inkscape-font-specification:'La chata';fill:#ff6600;stroke-width:0.04947508"
           d="m 172.12272,57.904587 q 0,2.440866 0.73686,4.236975 0.78292,1.796108 2.02638,2.993514 1.28951,1.151352 2.90141,1.704001 1.65794,0.552649 3.36194,0.552649 0.78292,0 1.19741,0.598703 0.46054,0.552648 0.46054,1.289513 0,0.736866 -0.46054,1.289514 -0.41449,0.598703 -1.19741,0.598703 -2.34875,0 -4.65146,-0.828973 -2.3027,-0.782919 -4.09881,-2.440866 -1.79611,-1.657946 -2.94746,-4.144866 -1.1053,-2.48692 -1.1053,-5.848867 v -7.506813 q 0,-0.690811 -0.50659,-1.151352 -0.46054,-0.46054 -1.1053,-0.46054 h -1.56584 q -0.64476,0 -1.01319,-0.460541 -0.32238,-0.506595 -0.32238,-1.151352 0,-0.644757 0.32238,-1.105298 0.36843,-0.506594 1.01319,-0.506594 h 1.56584 q 0.64476,0 1.1053,-0.460541 0.50659,-0.506595 0.50659,-1.151352 v -9.302922 q 0,-0.782919 0.55265,-1.197406 0.5987,-0.414486 1.33557,-0.414486 0.73686,0 1.28951,0.414486 0.59871,0.414487 0.59871,1.197406 v 9.302922 q 0,0.644757 0.46054,1.151352 0.50659,0.460541 1.15135,0.460541 h 5.66465 q 0.64476,0 1.01319,0.506594 0.36843,0.460541 0.36843,1.105298 0,0.644757 -0.36843,1.151352 -0.36843,0.460541 -1.01319,0.460541 h -5.66465 q -0.64476,0 -1.15135,0.46054 -0.46054,0.460541 -0.46054,1.151352 z"
           inkscape:connector-curvature="0" />
        <path
           id="path5238"
           style="font-style:normal;font-variant:normal;font-weight:normal;font-stretch:normal;font-family:'La chata';-inkscape-font-specification:'La chata';fill:#ff6600;stroke-width:0.04947508"
           d="m 212.1142,57.996695 q 0,0.690811 -0.46054,1.24346 -0.41449,0.552649 -1.15135,0.690811 l -19.1585,3.039569 q 1.19741,2.348758 3.36195,3.454055 2.16454,1.105298 4.60541,1.105298 2.11848,0 4.0067,-0.828973 0.0921,-0.04605 0.32238,-0.138163 0.27632,-0.09211 0.5987,0 0.36843,0.04605 0.73687,0.322379 0.36843,0.23027 0.64475,0.875027 0.32238,0.644757 0.13817,1.335568 -0.13817,0.690811 -0.92109,1.059244 -2.57902,1.151352 -5.52648,1.151352 -2.34876,0 -4.65146,-0.828974 -2.30271,-0.782919 -4.09882,-2.440865 -1.79611,-1.657947 -2.94746,-4.144867 -1.10529,-2.486919 -1.10529,-5.848866 0,-3.361948 1.10529,-5.848867 1.1053,-2.48692 2.90141,-4.098812 1.84216,-1.657947 4.14487,-2.440866 2.3027,-0.828973 4.65146,-0.828973 2.34875,0 4.6054,0.828973 2.30271,0.782919 4.09882,2.440866 1.84216,1.611892 2.94746,4.098812 1.15135,2.440865 1.15135,5.802812 z m -21.18487,1.197406 16.76368,-2.671136 q 0.27632,-0.04605 0.36843,-0.276324 0.13816,-0.230271 0.0921,-0.460541 -0.36843,-1.842163 -1.24346,-3.177731 -0.82898,-1.381622 -2.02638,-2.256649 -1.19741,-0.921081 -2.67114,-1.335568 -1.42767,-0.414487 -2.9014,-0.414487 -1.75006,0 -3.36195,0.552649 -1.61189,0.552649 -2.90141,1.704001 -1.24346,1.151351 -2.02638,2.94746 -0.73686,1.796109 -0.73686,4.236975 v 0.644756 q 0.0921,0.598703 0.64476,0.506595 z"
           inkscape:connector-curvature="0" />
      </g>
    </g>
  </g>
</svg>
